<?xml version="1.0" standalone="no"?><!DOCTYPE svg PUBLIC "-//W3C//DTD SVG 1.1//EN" "http://www.w3.org/Graphics/SVG/1.1/DTD/svg11.dtd"><svg class="icon" width="200px" height="200.00px" viewBox="0 0 1024 1024" version="1.1" xmlns="http://www.w3.org/2000/svg"><path d="M138.026667 299.946667a42.666667 42.666667 0 0 1 32.981333 69.674666l0.170667 0.042667a256 256 0 0 0 203.221333 398.122667L384 768l213.333333-0.042667v-80.128a25.6 25.6 0 0 1 2.432-10.922666l1.877334-3.285334a25.6 25.6 0 0 1 35.498666-7.082666L821.333333 789.333333a25.6 25.6 0 0 1 0 42.581334l-184.234666 122.88a25.6 25.6 0 0 1-39.808-21.333334v-80.213333L384 853.333333A341.333333 341.333333 0 0 1 102.954667 318.250667a42.666667 42.666667 0 0 1 35.072-18.346667z m284.330666-223.658667a25.6 25.6 0 0 1 4.309334 14.208V170.666667L640 170.666667a341.333333 341.333333 0 0 1 284.245333 530.389333l-0.853333 1.28a204.714667 204.714667 0 0 1-2.389333 3.498667c-8.021333 9.386667-19.84 15.36-33.066667 15.36a42.666667 42.666667 0 0 1-31.445333-71.509334l-0.426667-0.341333a256 256 0 0 0-206.506667-393.173333L640 256l-213.333333-0.042667v80.213334a25.6 25.6 0 0 1-39.808 21.333333L202.666667 234.581333a25.6 25.6 0 0 1 0-42.581333l184.234666-122.88a25.6 25.6 0 0 1 35.498667 7.125333z" fill="#ffffff" /></svg>